<svg xmlns="http://www.w3.org/2000/svg" viewBox="0 0 100 73.63"><defs><style>.cls-1{fill:#68c2ee;}.cls-2{fill:#2d9bc6;}</style></defs><g id="Layer_2" data-name="Layer 2"><g id="Layer_1-2" data-name="Layer 1"><path class="cls-1" d="M96.52,61.86v6.8l-1.5,2H50V48.57H28.38v2.75L18.23,45.46,28.38,39.6v2.75H74.47v2.82l10.16-5.86L74.47,33.44V36.2H50V16.14H31.21L29.83,12.7a6.66,6.66,0,0,0-6-4H5.47A5.47,5.47,0,0,0,0,14.15v54a5.47,5.47,0,0,0,5.47,5.47H94.53A5.47,5.47,0,0,0,100,68.16v-52H96.52Z"/><path class="cls-2" d="M94.53,7.46H31.21L29.83,4a6.65,6.65,0,0,0-6-4H5.47A5.48,5.48,0,0,0,0,5.47v8.68A5.47,5.47,0,0,1,5.47,8.68h18.4a6.66,6.66,0,0,1,6,4l1.38,3.44H100V12.93A5.48,5.48,0,0,0,94.53,7.46Z"/></g></g></svg>