<svg xmlns="http://www.w3.org/2000/svg" viewBox="0 0 1282.46 723.19"><defs><style>.cls-1{fill:#68c2ee;}.cls-2{fill:#2d9bc6;}.cls-3{fill:#1d1d1b;}</style></defs><g id="Layer_2" data-name="Layer 2"><g id="Layer_1-2" data-name="Layer 1"><path class="cls-1" d="M886,280.31v30.81l-6.77,9h-204v-100h-98v12.48l-46-26.57,46-26.56v12.48H786.13v12.75l46-26.57-46-26.56V164H675.23V73.12H590.08l-6.26-15.57a30.18,30.18,0,0,0-27-18.24H473.45a24.83,24.83,0,0,0-24.8,24.8V308.86a24.82,24.82,0,0,0,24.8,24.8H877a24.82,24.82,0,0,0,24.8-24.8V73.12H886Z" transform="translate(-13.97)"/><path class="cls-2" d="M877,33.81H590.08l-6.26-15.57A30.16,30.16,0,0,0,556.8,0H473.45a24.83,24.83,0,0,0-24.8,24.8V64.11a24.83,24.83,0,0,1,24.8-24.8H556.8a30.18,30.18,0,0,1,27,18.24l6.26,15.57H901.81V58.61A24.83,24.83,0,0,0,877,33.81Z" transform="translate(-13.97)"/><path class="cls-3" d="M14,524.41c0-27.95,18.52-46.47,46.47-46.47h96.07c9.08,0,15,5.94,15,15.37,0,9.09-5.94,15-15,15H46.81v80h96.07c9.09,0,15,5.94,15,15.37,0,9.08-5.94,15-15,15H46.81v88c0,9.78-6.29,16.42-16.42,16.42-9.78,0-16.42-6.64-16.42-16.42Z" transform="translate(-13.97)"/><path class="cls-3" d="M192.49,494.36c0-9.78,6.29-16.42,16.42-16.42,9.78,0,16.42,6.64,16.42,16.42V706.77c0,9.78-6.29,16.42-16.42,16.42-9.78,0-16.42-6.64-16.42-16.42Z" transform="translate(-13.97)"/><path class="cls-3" d="M253.27,494.36c0-9.78,6.29-16.42,16.42-16.42,9.79,0,16.42,6.64,16.42,16.42V692.44H375.2c9.08,0,15.37,5.94,15.37,15.37,0,9.09-5.94,15.38-15,15.38H299.74c-27.95,0-46.47-18.52-46.47-46.47Z" transform="translate(-13.97)"/><path class="cls-3" d="M404.54,524.41c0-27.95,18.52-46.47,46.47-46.47h96.07c9.08,0,15,5.94,15,15.37,0,9.09-5.94,15-15,15H437.38v73h96.07c9.09,0,15,5.94,15,15.37,0,9.08-5.94,15-15,15H437.38v80.35H546.73c9.08,0,15.37,6.29,15.37,15.72,0,9.09-6.29,15.38-15.37,15.38H451c-27.95,0-46.47-18.52-46.47-46.47Z" transform="translate(-13.97)"/><path class="cls-3" d="M590.05,498.9c0-12.57,8.38-21,21.31-21a31.71,31.71,0,0,1,29,19.22l70.57,171.18,70.57-171.18a31.83,31.83,0,0,1,29.35-19.22c12.57,0,21,8.39,21,21V706.77c0,9.78-6.29,16.42-16.42,16.42-9.78,0-16.42-6.64-16.42-16.42V539.08L731.53,702.92a22.4,22.4,0,0,1-41.22,0L622.89,539.08V706.77c0,9.78-6.29,16.42-16.42,16.42-9.79,0-16.42-6.64-16.42-16.42Z" transform="translate(-13.97)"/><path class="cls-3" d="M945.33,491.57a22.93,22.93,0,0,1,41.92,0l91.19,215.55c4.19,9.78-.35,16.07-11.18,16.07a26.25,26.25,0,0,1-24.11-16.07l-20.26-48.21H910.05l-20.26,47.86A27.19,27.19,0,0,1,865,723.19c-10.48,0-14.67-6.29-10.48-16.07ZM1010,629.21,966.29,525.45,922.63,629.21Z" transform="translate(-13.97)"/><path class="cls-3" d="M1101.14,496.46c0-12.93,8.74-18.52,19.22-18.52A35.55,35.55,0,0,1,1149,493.66l114.59,176.77V494.36c0-9.78,6.29-16.42,16.42-16.42,9.78,0,16.42,6.64,16.42,16.42v211c0,10.83-7.34,17.82-18.52,17.82a33.8,33.8,0,0,1-27.59-15L1134,529V706.77c0,9.78-6.29,16.42-16.42,16.42-9.78,0-16.42-6.64-16.42-16.42Z" transform="translate(-13.97)"/></g></g></svg>