<svg xmlns="http://www.w3.org/2000/svg" viewBox="0 0 1945.06 333.66"><defs><style>.cls-1{fill:#68c2ee;}.cls-2{fill:#2d9bc6;}.cls-3{fill:#1d1d1b;}</style></defs><g id="Layer_2" data-name="Layer 2"><g id="Layer_1-2" data-name="Layer 1"><path class="cls-1" d="M437.38,280.31v30.81l-6.77,9h-204v-100h-98v12.48L82.59,206l46-26.56v12.48H337.48v12.75l46-26.57-46-26.56V164H226.58V73.12H141.42l-6.25-15.57c-4.27-10.56-15.63-18.24-27-18.24H24.8A24.83,24.83,0,0,0,0,64.11V308.86a24.82,24.82,0,0,0,24.8,24.8H428.36a24.82,24.82,0,0,0,24.8-24.8V73.12H437.38Z"/><path class="cls-2" d="M428.36,33.81H141.42l-6.25-15.57A30.19,30.19,0,0,0,108.15,0H24.8A24.83,24.83,0,0,0,0,24.8V64.11a24.83,24.83,0,0,1,24.8-24.8h83.35c11.39,0,22.75,7.68,27,18.24l6.25,15.57H453.16V58.61A24.83,24.83,0,0,0,428.36,33.81Z"/><path class="cls-3" d="M662.6,105.14c0-27.94,18.52-46.46,46.46-46.46h96.07c9.09,0,15,5.94,15,15.37,0,9.09-5.94,15-15,15H695.44v80h96.07c9.08,0,15,5.93,15,15.37,0,9.08-5.94,15-15,15H695.44v88c0,9.79-6.29,16.42-16.42,16.42-9.78,0-16.42-6.63-16.42-16.42Z"/><path class="cls-3" d="M841.11,75.1c0-9.78,6.29-16.42,16.42-16.42,9.79,0,16.42,6.64,16.42,16.42V287.5c0,9.79-6.29,16.42-16.42,16.42-9.78,0-16.42-6.63-16.42-16.42Z"/><path class="cls-3" d="M901.9,75.1c0-9.78,6.29-16.42,16.42-16.42,9.78,0,16.42,6.64,16.42,16.42V273.18h89.08c9.09,0,15.37,5.94,15.37,15.37,0,9.09-5.93,15.37-15,15.37H948.36c-27.94,0-46.46-18.51-46.46-46.46Z"/><path class="cls-3" d="M1053.17,105.14c0-27.94,18.51-46.46,46.46-46.46h96.07c9.09,0,15,5.94,15,15.37,0,9.09-5.94,15-15,15H1086v73h96.07c9.08,0,15,5.94,15,15.37,0,9.08-5.94,15-15,15H1086v80.35h109.34c9.09,0,15.38,6.29,15.38,15.72,0,9.09-6.29,15.37-15.38,15.37h-95.72c-28,0-46.46-18.51-46.46-46.46Z"/><path class="cls-3" d="M1238.67,79.64c0-12.58,8.39-21,21.31-21a31.71,31.71,0,0,1,29,19.22l70.57,171.18L1430.12,77.9a31.83,31.83,0,0,1,29.34-19.22c12.58,0,21,8.38,21,21V287.5c0,9.79-6.29,16.42-16.42,16.42-9.78,0-16.42-6.63-16.42-16.42V119.82l-67.42,163.84a22.4,22.4,0,0,1-41.22,0l-67.43-163.84V287.5c0,9.79-6.29,16.42-16.42,16.42-9.78,0-16.42-6.63-16.42-16.42Z"/><path class="cls-3" d="M1594,72.31a22.93,22.93,0,0,1,41.92,0l91.18,215.54c4.19,9.79-.35,16.07-11.18,16.07a26.22,26.22,0,0,1-24.1-16.07l-20.27-48.21H1558.67l-20.26,47.86a27.15,27.15,0,0,1-24.8,16.42c-10.48,0-14.67-6.28-10.48-16.07ZM1658.59,210l-43.67-103.76L1571.25,210Z"/><path class="cls-3" d="M1749.77,77.2c0-12.93,8.73-18.52,19.21-18.52a35.58,35.58,0,0,1,28.65,15.72l114.59,176.77V75.1c0-9.78,6.28-16.42,16.42-16.42,9.78,0,16.42,6.64,16.42,16.42v211c0,10.83-7.34,17.81-18.52,17.81a33.82,33.82,0,0,1-27.6-15L1782.61,109.69V287.5c0,9.79-6.29,16.42-16.42,16.42-9.78,0-16.42-6.63-16.42-16.42Z"/></g></g></svg>