<svg xmlns="http://www.w3.org/2000/svg" viewBox="0 0 453.16 333.66"><defs><style>.cls-1{fill:#68c2ee;}.cls-2{fill:#2d9bc6;}</style></defs><g id="Layer_2" data-name="Layer 2"><g id="Layer_1-2" data-name="Layer 1"><path class="cls-1" d="M437.38,280.31v30.81l-6.77,9h-204v-100h-98v12.48L82.59,206l46-26.56v12.48H337.48v12.75l46-26.57-46-26.56V164H226.58V73.12H141.42l-6.25-15.57c-4.27-10.56-15.63-18.24-27-18.24H24.8A24.83,24.83,0,0,0,0,64.11V308.86a24.82,24.82,0,0,0,24.8,24.8H428.36a24.82,24.82,0,0,0,24.8-24.8V73.12H437.38Z"/><path class="cls-2" d="M428.36,33.81H141.42l-6.25-15.57A30.19,30.19,0,0,0,108.15,0H24.8A24.83,24.83,0,0,0,0,24.8V64.11a24.83,24.83,0,0,1,24.8-24.8h83.35c11.39,0,22.75,7.68,27,18.24l6.25,15.57H453.16V58.61A24.83,24.83,0,0,0,428.36,33.81Z"/></g></g></svg>